<?xml version="1.0" encoding="utf-8"?>
<!-- Generator: Adobe Illustrator 26.1.0, SVG Export Plug-In . SVG Version: 6.00 Build 0)  -->
<svg version="1.1" id="Layer_1" xmlns="http://www.w3.org/2000/svg" xmlns:xlink="http://www.w3.org/1999/xlink" x="0px" y="0px"
	 viewBox="0 0 60 60" style="enable-background:new 0 0 60 60;" xml:space="preserve">
<style type="text/css">
	.st0{fill:url(#SVGID_1_);}
	.st1{fill:#17354A;}
	.st2{fill:#18354C;}
	.st3{fill:#1A364B;}
	.st4{fill:#A9CCBD;}
	.st5{fill:#3F768B;}
	.st6{fill:url(#SVGID_00000112617380589933054430000012581634316895006133_);}
	.st7{fill:#447B93;}
	.st8{fill:#B0D0C6;}
	.st9{fill:#559195;}
	.st10{fill:#DFF7F8;}
	.st11{fill:#B5CDC1;}
	.st12{fill:#42768C;}
	.st13{fill:#1A364C;}
	.st14{fill:#BAD6C9;}
	.st15{fill:#E2F5ED;}
	.st16{fill:#16344B;}
	.st17{fill:#A4D2C2;}
	.st18{fill:#EBFDFB;}
	.st19{fill:#ACD0C6;}
	.st20{fill:#B0D3CC;}
	.st21{display:none;}
	.st22{display:inline;fill:#ABD2C5;}
	.st23{fill:#ABD2C5;}
	.st24{fill:#FCF4E6;}
	.st25{fill:#417584;}
	.st26{fill:#A7CAC2;}
	.st27{fill:#FCF5E3;}
	.st28{fill:url(#SVGID_00000104672393002701534420000002240923412101676938_);}
	.st29{fill:url(#SVGID_00000029022905891826625250000007238723669297567155_);}
</style>
<g>
	<linearGradient id="SVGID_1_" gradientUnits="userSpaceOnUse" x1="30" y1="60.244" x2="30" y2="-0.2846">
		<stop  offset="0" style="stop-color:#8AB4B6"/>
		<stop  offset="1" style="stop-color:#CBE2D1"/>
	</linearGradient>
	<rect x="0" y="-0.28" class="st0" width="60" height="60.53"/>
	<g>
		<g>
			<g>
				<path class="st1" d="M14.38,35.28c0,0.95,0,1.79,0.15,2.05c0.48,0.82,1.4,0.76,1.8,0.76c1.56,0,2.78,0.01,2.96,0
					c0.31-0.02,0.81-0.44,0.92-0.59c0.11-0.15,0.27-0.44,0.29-0.65c0.19,0.09,2.2,1.16,2.2,1.16c-0.08,0.29-0.37,0.96-0.93,1.69
					c-0.41,0.52-1.43,1.19-2.49,1.19c-0.85,0-2.69,0-4.44,0c-1.14,0-2.28-0.47-3.06-1.61c-0.36-0.54-0.66-1.32-0.66-2.25
					c0-5.18,0-6.04,0-6.04h3.25V35.28"/>
				<path class="st1" d="M14.38,31.69c0-0.95,0-1.79,0.15-2.05c0.48-0.82,1.4-0.76,1.8-0.76c1.56,0,2.78-0.01,2.96,0
					c0.31,0.02,0.81,0.44,0.92,0.59c0.11,0.15,0.27,0.44,0.29,0.65c0.19-0.09,2.2-1.16,2.2-1.16c-0.08-0.29-0.37-0.96-0.93-1.69
					c-0.41-0.52-1.43-1.19-2.49-1.19c-0.85,0-2.69,0-4.44,0c-1.14,0-2.28,0.47-3.06,1.61c-0.36,0.54-0.66,1.32-0.66,2.25
					c0,5.18,0,6.04,0,6.04h3.25V31.69"/>
			</g>
			<g>
				<polyline class="st1" points="40,40.88 45.23,26.11 48.86,26.1 43.13,40.88 				"/>
				<polyline class="st1" points="43.1,40.88 37.88,26.11 34.26,26.1 39.97,40.88 				"/>
			</g>
		</g>
		<g>
			<g>
				<polygon class="st2" points="41.25,22.69 35.43,19.37 21.21,44.29 21.21,44.29 21.21,44.29 21.21,44.29 21.21,44.29 
					20.39,52.47 27.02,47.61 27.02,47.61 				"/>
				<g>
					<path class="st3" d="M37.31,17.7l2.1-3.84c0.43-0.72,0.89-1.37,1.36-2.13l1.15-1.56l3.47,1.93l-0.8,2.19
						c-0.39,0.88-0.64,1.51-1.02,2.3l-1.84,3.48L37.31,17.7z"/>
					<g>
						<g>
							
								<rect x="39" y="15.97" transform="matrix(0.8685 0.4958 -0.4958 0.8685 13.9226 -17.7172)" class="st4" width="2.7" height="2.81"/>
							
								<rect x="38.58" y="17.55" transform="matrix(0.8685 0.4958 -0.4958 0.8685 14.2309 -17.4134)" class="st5" width="2.7" height="1.12"/>
							
								<linearGradient id="SVGID_00000089572146600560112610000002208169189502771366_" gradientUnits="userSpaceOnUse" x1="539.1306" y1="747.8887" x2="541.2173" y2="746.684" gradientTransform="matrix(0.5267 0.8501 -0.8501 0.5267 391.602 -836.5527)">
								<stop  offset="0.5631" style="stop-color:#E6F6F8"/>
								<stop  offset="1" style="stop-color:#E2F9F9;stop-opacity:0"/>
							</linearGradient>
							<path style="fill:url(#SVGID_00000089572146600560112610000002208169189502771366_);" d="M39.87,15.49
								c0,0,1.9,1.09,2.05,1.17c-0.02,0.03,0.04,0.21-0.15,0.15c-0.49-0.16-1.75-0.86-2.06-1.03
								C39.78,15.62,39.87,15.49,39.87,15.49z"/>
						</g>
						
							<ellipse transform="matrix(0.4071 -0.9134 0.9134 0.4071 8.5769 47.2294)" class="st7" cx="40.67" cy="17.01" rx="0.27" ry="1.03"/>
					</g>
					<g>
						
							<rect x="40.7" y="13.53" transform="matrix(0.8811 0.4729 -0.4729 0.8811 11.7543 -18.1594)" class="st8" width="2.6" height="1.55"/>
						
							<rect x="41.97" y="14.88" transform="matrix(0.8811 0.4729 -0.4729 0.8811 12.2053 -18.2815)" class="st9" width="0.99" height="0.52"/>
						<path class="st10" d="M41.22,13c0,0,1.86,1,2,1.07c-0.48,0.09-1.78-0.5-2.19-0.72C41.1,13.2,41.22,13,41.22,13z"/>
					</g>
					<g>
						
							<rect x="42.08" y="11.52" transform="matrix(0.8811 0.4729 -0.4729 0.8811 10.8626 -18.9424)" class="st11" width="2.06" height="1.22"/>
						
							<rect x="43.21" y="11.81" transform="matrix(0.8811 0.4729 -0.4729 0.8811 11.0596 -19.1586)" class="st12" width="0.86" height="1.22"/>
					</g>
				</g>
				<g>
					<circle class="st13" cx="44.59" cy="9.53" r="2.88"/>
					<g>
						<path class="st14" d="M43.48,10.28c0.39,0.63,1.22,0.83,1.86,0.44c0.06-0.03,0.11-0.07,0.16-0.11
							c0.37-0.43,0.44-1.08,0.12-1.59c-0.39-0.63-1.22-0.83-1.86-0.44c-0.06,0.03-0.11,0.07-0.16,0.11
							C43.23,9.12,43.16,9.76,43.48,10.28z"/>
						<path class="st15" d="M45.58,9.01c0.32,0.51,0.26,1.13-0.09,1.59c0.5-0.42,0.64-1.16,0.28-1.74
							c-0.39-0.63-1.22-0.83-1.86-0.44c-0.12,0.07-0.22,0.17-0.31,0.27c0.05-0.04,0.1-0.08,0.16-0.11
							C44.41,8.22,45.19,8.38,45.58,9.01z"/>
					</g>
				</g>
				<g>
					
						<rect x="30.89" y="18.35" transform="matrix(0.8685 0.4958 -0.4958 0.8685 14.9475 -16.7567)" class="st16" width="16.33" height="2.87"/>
					
						<rect x="34.09" y="19.29" transform="matrix(0.8685 0.4958 -0.4958 0.8685 14.8817 -16.6899)" class="st17" width="9.61" height="0.81"/>
					
						<rect x="34.24" y="19.34" transform="matrix(0.8685 0.4958 -0.4958 0.8685 14.7643 -16.8056)" class="st18" width="9.61" height="0.17"/>
					<circle class="st19" cx="33.26" cy="16.48" r="0.4"/>
					<circle class="st20" cx="44.46" cy="22.88" r="0.4"/>
				</g>
				<g>
					<g class="st21">
						<polygon class="st22" points="36,21.28 36.15,24.5 37.5,22.13 37.5,22.13 36,21.28 						"/>
						<polygon class="st22" points="36.74,20.12 36.68,20.08 36.68,20.08 36.63,20.18 36.57,20.28 36,21.28 37.5,22.13 37.97,21.31 
							38.18,20.94 						"/>
					</g>
					<polygon class="st23" points="36.65,20.14 36,21.28 36.15,24.53 38.45,21.28 					"/>
					<polygon class="st24" points="25.46,46.71 39,22.99 36.15,24.53 36.15,24.5 23.96,45.86 24.46,46.14 23.96,45.86 23.96,45.86 
						22.05,49.21 25.46,46.71 25.46,46.71 					"/>
					<path class="st25" d="M39.69,21.79l-1.5-0.85v0l-1.44-0.81l-0.01,0l0,0l-0.06-0.03v0l0.05,0.03l-0.05-0.03l0,0v0l-0.05,0.09
						l-0.06,0.11c0.11,0.31,1.01,0.8,1.41,1.02h0l-0.47,0.83l0,0l-1.35,2.37l0,0.02L39,22.99v0l0.01,0l0,0l0.14-0.24l0.54-0.95
						L39.69,21.79L39.69,21.79z M38.18,20.94L38.18,20.94l-1.27-0.73L38.18,20.94L38.18,20.94z M39.01,22.99L39.01,22.99
						L39.01,22.99L39.01,22.99z"/>
				</g>
				<g>
					<polygon class="st26" points="34.71,27.02 34.7,27.02 33.79,25.16 22.46,45 22.46,45 22.46,45 22.46,45 22.46,45 22.04,49.22 
						22.05,49.21 23.96,45.86 23.96,45.86 23.44,45.56 23.96,45.86 					"/>
					<polygon class="st27" points="35.63,25.41 36.15,24.5 36,21.28 36,21.28 36.57,20.28 34.27,24.31 33.79,25.16 34.7,27.02 
						34.71,27.02 					"/>
				</g>
			</g>
			<g>
				<polygon class="st2" points="39.12,52.78 38.49,44.58 38.49,44.58 24.88,19.33 18.98,22.51 32.6,47.76 32.6,47.76 				"/>
				<g>
					<path class="st3" d="M18.55,20.03l-2.15-3.81c-0.38-0.75-0.69-1.48-1.09-2.28l-0.72-1.81l3.48-1.92l1.44,1.84
						c0.54,0.8,0.94,1.35,1.41,2.08l1.98,3.4L18.55,20.03z"/>
					<g>
						<g>
							
								<rect x="18.54" y="15.88" transform="matrix(0.8802 -0.4747 0.4747 0.8802 -5.8196 11.513)" class="st4" width="2.7" height="2.81"/>
							
								<rect x="18.94" y="17.47" transform="matrix(0.8802 -0.4747 0.4747 0.8802 -6.1241 11.7921)" class="st5" width="2.7" height="1.12"/>
							
								<linearGradient id="SVGID_00000181053188873077039730000007240236646156935332_" gradientUnits="userSpaceOnUse" x1="109.8273" y1="-9.0762" x2="111.914" y2="-10.2809" gradientTransform="matrix(1 2.809598e-03 -2.809598e-03 1 -91.7398 25.6066)">
								<stop  offset="0.5631" style="stop-color:#E6F6F8"/>
								<stop  offset="1" style="stop-color:#E2F9F9;stop-opacity:0"/>
							</linearGradient>
							<path style="fill:url(#SVGID_00000181053188873077039730000007240236646156935332_);" d="M18.04,16.69
								c0,0,1.93-1.03,2.07-1.12c0.01,0.04,0.2,0.08,0.04,0.21c-0.39,0.33-1.66,1.03-1.96,1.2C18.1,16.83,18.04,16.69,18.04,16.69z"
								/>
						</g>
						
							<ellipse transform="matrix(0.8287 -0.5597 0.5597 0.8287 -6.0291 13.9336)" class="st7" cx="19.75" cy="16.82" rx="1.03" ry="0.27"/>
					</g>
					<g>
						
							<rect x="16.85" y="13.48" transform="matrix(0.8674 -0.4976 0.4976 0.8674 -4.6853 10.9224)" class="st8" width="2.6" height="1.55"/>
						
							<rect x="18.62" y="14.04" transform="matrix(0.8674 -0.4976 0.4976 0.8674 -4.5808 11.4047)" class="st9" width="0.99" height="0.52"/>
						<path class="st10" d="M16.64,14.23c0,0,1.83-1.05,1.97-1.13c-0.18,0.45-1.36,1.24-1.77,1.47
							C16.75,14.43,16.64,14.23,16.64,14.23z"/>
					</g>
					<g>
						
							<rect x="15.88" y="11.55" transform="matrix(0.8674 -0.4976 0.4976 0.8674 -3.8116 10.0239)" class="st11" width="2.06" height="1.22"/>
						
							<rect x="17" y="11.25" transform="matrix(0.8674 -0.4976 0.4976 0.8674 -3.5941 10.2433)" class="st12" width="0.86" height="1.22"/>
					</g>
				</g>
				<g>
					<circle class="st13" cx="15.47" cy="9.53" r="2.88"/>
					<g>
						<path class="st14" d="M15.52,10.87c0.74,0,1.35-0.6,1.35-1.34c0-0.07,0-0.13-0.01-0.19c-0.17-0.55-0.68-0.94-1.28-0.95
							c-0.74,0-1.35,0.6-1.35,1.34c0,0.07,0,0.13,0.01,0.19C14.41,10.47,14.92,10.87,15.52,10.87z"/>
						<path class="st15" d="M15.58,8.41c0.6,0,1.06,0.38,1.28,0.92c-0.09-0.65-0.65-1.16-1.33-1.16c-0.74,0-1.35,0.6-1.35,1.34
							c0,0.14,0.02,0.28,0.06,0.41c-0.01-0.06-0.02-0.13-0.01-0.19C14.25,8.99,14.84,8.41,15.58,8.41z"/>
					</g>
				</g>
				<g>
					
						<rect x="13.09" y="18.22" transform="matrix(0.8802 -0.4747 0.4747 0.8802 -6.7848 12.4434)" class="st16" width="16.33" height="2.87"/>
					
						<rect x="16.28" y="19.34" transform="matrix(0.8802 -0.4747 0.4747 0.8802 -6.8453 12.3774)" class="st17" width="9.61" height="0.81"/>
					
						<rect x="16.13" y="19.38" transform="matrix(0.8802 -0.4747 0.4747 0.8802 -6.7293 12.2712)" class="st18" width="9.61" height="0.17"/>
					<circle class="st19" cx="15.38" cy="22.82" r="0.4"/>
					<circle class="st20" cx="26.74" cy="16.7" r="0.4"/>
				</g>
				<g>
					<g class="st21">
						<polygon class="st22" points="23.72,24.61 22.42,22.21 22.42,22.21 20.91,23.04 20.91,23.04 						"/>
						<polygon class="st22" points="21.97,21.38 21.77,21 20.31,21.79 20.25,21.83 20.25,21.83 20.3,21.92 20.36,22.03 20.91,23.04 
							22.42,22.21 						"/>
					</g>
					
						<linearGradient id="SVGID_00000096030982582219670430000000235349406714174341_" gradientUnits="userSpaceOnUse" x1="22.0173" y1="24.6256" x2="22.0173" y2="21.1188">
						<stop  offset="0" style="stop-color:#8AB4B6"/>
						<stop  offset="1" style="stop-color:#CBE2D1"/>
					</linearGradient>
					<polygon style="fill:url(#SVGID_00000096030982582219670430000000235349406714174341_);" points="20.3,21.92 20.89,23.04 
						23.74,24.63 22.02,21.12 					"/>
					<polygon class="st24" points="36.91,45.43 36.91,45.43 23.94,21.39 23.74,24.63 23.72,24.61 35.39,46.25 35.39,46.25 
						37.23,49.65 					"/>
					<g>
						<polygon class="st25" points="20.25,21.83 20.31,21.79 20.25,21.82 						"/>
						<path class="st25" d="M23.94,21.39l-0.13-0.24l-0.52-0.96l0,0l-0.01-0.01L21.77,21l-1.46,0.79L21.77,21v0l-1.46,0.79
							l-0.06,0.03h0l0,0l0.05,0.09l0.06,0.11c0.32,0.07,1.21-0.43,1.61-0.65l0.45,0.84v0l1.29,2.4l0.02,0.01L23.94,21.39
							L23.94,21.39L23.94,21.39L23.94,21.39z"/>
					</g>
				</g>
				<g>
					<polygon class="st26" points="37.23,49.67 37.23,49.65 35.39,46.25 35.39,46.25 35.01,46.46 35.39,46.25 25.09,27.16 
						25.09,27.18 23.02,26.97 33.87,47.08 33.87,47.08 33.87,47.08 33.87,47.08 					"/>
					<polygon class="st27" points="24.21,25.54 23.72,24.61 20.91,23.04 20.91,23.04 20.36,22.03 22.56,26.11 23.02,26.97 
						25.09,27.18 25.09,27.16 					"/>
				</g>
			</g>
		</g>
	</g>
</g>
</svg>
