<svg width="54" height="68" fill="none" xmlns="http://www.w3.org/2000/svg"><path d="M.188 17.274v26.81c0 1.393.73 2.67 1.921 3.367l23.063 13.386a3.797 3.797 0 003.844 0L52.078 47.45A3.887 3.887 0 0054 44.085v-26.81c0-1.394-.73-2.67-1.922-3.367L29.016.522a3.797 3.797 0 00-3.844 0L2.109 13.947a3.871 3.871 0 00-1.921 3.327z" fill="#0F2B46"/><path d="M36.703 67.53l-.038-5.803.038-5.339-13.453 3.327" fill="#0F2B46"/><path d="M36.088 55.924l2.537-.658-.961.542c-.577.348-.961.967-.961 1.663v1.084l-.615-2.631z" fill="#142C46"/><path d="M17.79 18.474a3.95 3.95 0 015.535 0 4.016 4.016 0 010 5.804 3.95 3.95 0 01-5.535 0 4.016 4.016 0 010-5.804zM35.087 28.572a3.95 3.95 0 015.535 0 4.016 4.016 0 010 5.803 3.95 3.95 0 01-5.535 0 4.016 4.016 0 010-5.803zM17.79 39.25a3.95 3.95 0 015.535 0 4.016 4.016 0 010 5.803 3.95 3.95 0 01-5.535 0 4.016 4.016 0 010-5.803z" fill="#fff"/><path d="M22.48 23.542l11.532 6.693 1.922-1.083-11.532-6.732-1.922 1.122zM34.78 35.148l-10.378 6.035-1.922-1.121 10.379-5.997 1.922 1.083z" fill="#fff"/></svg>