<svg xmlns="http://www.w3.org/2000/svg">
  <defs>
    <symbol id="star" viewBox="0 0 24 24" stroke="none" fill="currentColor">
      <path fill-rule="evenodd"
        d="M12.672.668a.75.75 0 00-1.345 0L8.27 6.865l-6.838.994a.75.75 0 00-.416 1.279l4.948 4.823-1.168 6.811a.75.75 0 001.088.791L12 18.347l6.117 3.216a.75.75 0 001.088-.79l-1.168-6.812 4.948-4.823a.75.75 0 00-.416-1.28l-6.838-.993L12.672.668z">
      </path>
    </symbol>
    <symbol id="privi-0" viewBox="0 0 24 24">
      <path stroke="none" d="M0 0h24v24H0z" fill="none"></path>
      <path d="M12 3a12 12 0 0 0 8.5 3a12 12 0 0 1 -8.5 15a12 12 0 0 1 -8.5 -15a12 12 0 0 0 8.5 -3"></path>
      <circle cx="12" cy="11" r="1"></circle>
      <line x1="12" y1="12" x2="12" y2="14.5"></line>
    </symbol>
    <symbol id="privi-1" viewBox="0 0 24 24">
      <path stroke="none" d="M0 0h24v24H0z" fill="none"></path>
      <path d="M12 3a12 12 0 0 0 8.5 3a12 12 0 0 1 -8.5 15a12 12 0 0 1 -8.5 -15a12 12 0 0 0 8.5 -3"></path>
      <path d="M12 16v-8l-2 2"></path>
    </symbol>
    <symbol id="privi-2" viewBox="0 0 24 24">
      <path stroke="none" d="M0 0h24v24H0z" fill="none"></path>
      <path d="M12 3a12 12 0 0 0 8.5 3a12 12 0 0 1 -8.5 15a12 12 0 0 1 -8.5 -15a12 12 0 0 0 8.5 -3"></path>
      <path d="M10 10a2 2 0 1 1 4 0c0 .591 -.417 1.318 -.816 1.858l-3.184 4.143l4 0"></path>
    </symbol>
    <symbol id="privi-3" viewBox="0 0 24 24">
      <path stroke="none" d="M0 0h24v24H0z" fill="none"></path>
      <path d="M12 3a12 12 0 0 0 8.5 3a12 12 0 0 1 -8.5 15a12 12 0 0 1 -8.5 -15a12 12 0 0 0 8.5 -3"></path>
      <path d="M12 12a2 2 0 1 0 -2 -2"></path>
      <path d="M10 14a2 2 0 1 0 2 -2"></path>
    </symbol>
    <symbol id="privi-4" viewBox="0 0 24 24">
      <path stroke="none" d="M0 0h24v24H0z" fill="none"></path>
      <path d="M12 3a12 12 0 0 0 8.5 3a12 12 0 0 1 -8.5 15a12 12 0 0 1 -8.5 -15a12 12 0 0 0 8.5 -3"></path>
      <path d="M13 16v-8l-4 6h5" />
    </symbol>
    <symbol id="privi-5" viewBox="0 0 24 24">
      <path stroke="none" d="M0 0h24v24H0z" fill="none"></path>
      <path d="M12 6l4 6l5 -4l-2 10h-14l-2 -10l5 4z"></path>
    </symbol>
    <symbol id="vcoin" viewBox="0 0 24 24">
      <path stroke="none" d="M0 0h24v24H0z" fill="none"></path>
      <path d="M19.875 6.27a2.225 2.225 0 0 1 1.125 1.948v7.284c0 .809 -.443 1.555 -1.158 1.948l-6.75 4.27a2.269 2.269 0 0 1 -2.184 0l-6.75 -4.27a2.225 2.225 0 0 1 -1.158 -1.948v-7.285c0 -.809 .443 -1.554 1.158 -1.947l6.75 -3.98a2.33 2.33 0 0 1 2.25 0l6.75 3.98h-.033z"></path>
      <path d="M10 8l2 8l2 -8"></path>
    </symbol>
    <symbol id="karma" viewBox="0 0 24 24">
      <path stroke="none" d="M0 0h24v24H0z" fill="none"></path>
      <path d="M19.875 6.27a2.225 2.225 0 0 1 1.125 1.948v7.284c0 .809 -.443 1.555 -1.158 1.948l-6.75 4.27a2.269 2.269 0 0 1 -2.184 0l-6.75 -4.27a2.225 2.225 0 0 1 -1.158 -1.948v-7.285c0 -.809 .443 -1.554 1.158 -1.947l6.75 -3.98a2.33 2.33 0 0 1 2.25 0l6.75 3.98h-.033z"></path>
      <path d="M10 8v8"></path>
      <path d="M14 8l-2.5 4l2.5 4"></path>
      <path d="M10 12h1.5"></path>
    </symbol>
    <symbol id="fanpt" viewBox="0 0 24 24">
      <path stroke="none" d="M0 0h24v24H0z" fill="none"></path>
      <path d="M20.87 10.48a9 9 0 1 0 -7.876 10.465"></path>
      <path d="M9 10h.01"></path>
      <path d="M15 10h.01"></path>
      <path d="M9.5 15c.658 .64 1.56 1 2.5 1c.357 0 .709 -.052 1.043 -.151"></path>
      <path d="M21 15h-2.5a1.5 1.5 0 0 0 0 3h1a1.5 1.5 0 0 1 0 3h-2.5"></path>
      <path d="M19 21v1m0 -8v1"></path>
    </symbol>
  </defs>
</svg>
