<svg xmlns="http://www.w3.org/2000/svg" width="32" height="32" viewBox="0 0 31.52 31.761"><path fill="#9df" d="M30.52 7.88l-8.78 4.1-.22-.1-5.76 2.88L10 11.88l-.22.1L1 7.88 15.76 1z"/><path fill="#ffd580" d="M15.76 22.76l-5.98-2.78L1 23.88l14.76 6.88 14.76-6.88-8.78-3.9z"/><path d="M31.52 15.871a1 1 0 00-.594-.904l-6.774-3.009 6.791-3.171a1.001 1.001 0 00-.001-1.812L16.182.095a.999.999 0 00-.845 0L.577 6.975a.997.997 0 000 1.811l6.791 3.171-6.774 3.009a1.002 1.002 0 00-.017 1.821l6.791 3.171-6.774 3.009a1 1 0 00-.017 1.819l14.76 6.88a.999.999 0 00.845 0l14.76-6.88a.999.999 0 00-.017-1.82l-6.774-3.009 6.791-3.171a.997.997 0 00.578-.915zM3.365 7.881L15.76 2.104l12.395 5.778-6.836 3.192-5.451 2.534-.108.05-.108-.05-5.451-2.534-6.836-3.193zm24.741 16.021L15.76 29.657 3.414 23.902l6.357-2.824 5.568 2.588c.266.124.577.124.843 0l5.568-2.588 6.356 2.824zm-6.788-4.828l-5.558 2.584-5.558-2.584-6.789-3.17 6.358-2.824 5.568 2.588c.266.124.577.124.843 0l5.568-2.588 6.358 2.824-6.79 3.17z" fill="#664848"/></svg>
